<?xml version="1.0" encoding="UTF-8"?>
<svg width="198px" height="64px" viewBox="0 0 198 64" version="1.1" xmlns="http://www.w3.org/2000/svg" xmlns:xlink="http://www.w3.org/1999/xlink">
    <!-- Generator: Sketch 54.1 (76490) - https://sketchapp.com -->
    <title>logo</title>
    <desc>Created with Sketch.</desc>
    <g id="Page-1" stroke="none" stroke-width="1" fill="none" fill-rule="evenodd">
        <g id="homepage" transform="translate(-161.000000, -17.000000)" fill-rule="nonzero">
            <g id="header" transform="translate(161.000000, 17.000000)">
                <g id="logo">
                    <g id="Artboard-1">
                        <path d="M60.2589706,32.9454545 C59.1647281,33.7282981 57.9568912,34.33902 56.6775,34.7563636 C55.4105699,35.168373 54.086252,35.3770254 52.7538971,35.3745455 C49.9300624,35.3798081 47.1893546,34.4200298 44.9867647,32.6545455 C43.4555804,31.4210117 42.2341293,29.8470357 41.4198529,28.0581818 C40.5720234,26.1853681 40.1446745,24.1498783 40.1677941,22.0945455 C40.0614992,18.5632124 41.3718645,15.1358265 43.8075,12.5745455 C46.1491105,10.0776846 49.4467103,8.69899238 52.8703676,8.78545455 C54.1597207,8.77865329 55.442084,8.97500359 56.6702206,9.36727273 C57.9294148,9.7841685 59.121171,10.3819494 60.2080147,11.1418182 L59.7421324,16 C58.8554595,15.0162973 57.7942018,14.2050574 56.6119853,13.6072727 C53.3724444,12.077971 49.5159835,12.8027777 47.0541176,15.4036364 C45.4339647,17.230315 44.5836319,19.6121875 44.6810294,22.0509091 C44.5922965,24.4319571 45.4207834,26.756358 46.9958824,28.5454545 C48.4874449,30.2247145 50.6458458,31.1591627 52.8922059,31.0981818 C54.2386775,31.1021508 55.5682533,30.7986689 56.7794118,30.2109091 C58.1790529,29.5003718 59.4449623,28.5530419 60.5210294,27.4109091 L60.2589706,32.9454545 Z" id="Path" fill="#7F481E"></path>
                        <path d="M62.7922059,34.5672727 L62.7922059,11.6363636 L68.0988971,11.6363636 C69.5639797,11.5998973 71.0286405,11.7242791 72.4665441,12.0072727 C73.4581342,12.2376369 74.398466,12.6494248 75.24,13.2218182 C76.0573233,13.789377 76.7344619,14.5355352 77.22,15.4036364 C77.6932826,16.2324488 77.944044,17.1694351 77.9479412,18.1236364 C77.9817339,19.5338606 77.5236664,20.911943 76.6522059,22.0218182 C75.6817202,23.1943381 74.384513,24.0524425 72.9251471,24.4872727 L80.3355882,34.5527273 L75.6403676,34.5527273 L68.6885294,25.04 L66.7449265,25.04 L66.7449265,34.5672727 L62.7922059,34.5672727 Z M66.7449265,22.1163636 L68.5938971,22.1163636 C69.9826238,22.2051238 71.366332,21.8785039 72.5684559,21.1781818 C73.4709548,20.5710447 73.9900115,19.5366429 73.9369853,18.4509091 C74.0088188,17.3752498 73.4793637,16.3480985 72.5611765,15.7818182 C71.6439706,15.2145455 70.1953676,14.9309091 68.1935294,14.9309091 L66.7376471,14.9309091 L66.7449265,22.1163636 Z" id="Shape" fill="#7F481E"></path>
                        <path d="M79.7532353,23.1127273 C79.7440003,21.7470458 79.9453305,20.3880885 80.3501471,19.0836364 C80.7414272,17.8267267 81.3365433,16.6425013 82.1117647,15.5781818 C83.1486149,14.1326419 84.5163324,12.9556896 86.1008824,12.1454545 C87.659142,11.3289644 89.3932388,10.9045757 91.1527941,10.9090909 C92.6556346,10.9100249 94.1422557,11.2194532 95.5204412,11.8181818 C96.9115618,12.4189236 98.1650317,13.2975268 99.2038235,14.4 C100.277778,15.5446041 101.120607,16.8854722 101.686103,18.3490909 C102.821913,21.4184757 102.821913,24.7924334 101.686103,27.8618182 C101.129515,29.3190916 100.285364,30.649697 99.2038235,31.7745455 C98.1494754,32.882697 96.8850094,33.7702243 95.4840441,34.3854545 C92.7138773,35.5976967 89.5625933,35.5976967 86.7924265,34.3854545 C85.4020688,33.7800735 84.149025,32.8992949 83.1090441,31.7963636 C82.0179634,30.6608722 81.1620349,29.3213137 80.5903676,27.8545455 C80.0202699,26.339247 79.7364253,24.7314497 79.7532353,23.1127273 L79.7532353,23.1127273 Z M83.8952206,23.1127273 C83.8238777,25.283661 84.5722226,27.4020245 85.9916912,29.0472727 C87.2861611,30.5577859 89.1770015,31.4272821 91.1673529,31.4272821 C93.1577043,31.4272821 95.0485448,30.5577859 96.3430147,29.0472727 C97.7624833,27.4020245 98.5108282,25.283661 98.4394853,23.1127273 C98.5138386,20.9416732 97.7710095,18.8216241 96.3575735,17.1709091 C95.0510889,15.6703311 93.1580256,14.8087739 91.1673529,14.8087739 C89.1766803,14.8087739 87.2836169,15.6703311 85.9771324,17.1709091 C84.5636963,18.8216241 83.8208673,20.9416732 83.8952206,23.1127273 L83.8952206,23.1127273 Z" id="Shape" fill="#7F481E"></path>
                        <path d="M105.041912,34.5672727 L105.041912,11.6363636 L110.355882,11.6363636 C111.807513,11.6011218 113.258381,11.7328978 114.679853,12.0290909 C115.696979,12.2625232 116.660409,12.6870303 117.518824,13.28 C118.34512,13.8716505 119.020827,14.6488713 119.491544,15.5490909 C119.968701,16.4237404 120.218964,17.4038714 120.219485,18.4 C120.305298,20.4705637 119.369627,22.4516046 117.715368,23.7018182 C116.041103,24.9818182 113.723824,25.6218182 110.763529,25.6218182 L109.045588,25.6218182 L109.045588,34.5672727 L105.041912,34.5672727 Z M109.031029,22.2472727 L110.843603,22.2472727 C112.234578,22.3352824 113.620397,22.0087624 114.825441,21.3090909 C115.730183,20.7039277 116.249922,19.6681667 116.193971,18.5818182 C116.265804,17.5061589 115.736349,16.4790076 114.818162,15.9127273 C113.900956,15.3381818 112.452353,15.0545455 110.486912,15.0545455 L109.031029,15.0545455 L109.031029,22.2472727 Z" id="Shape" fill="#7F481E"></path>
                        <polygon id="Path" fill="#7F481E" points="122.243162 34.5672727 122.243162 10.9090909 122.665368 10.9090909 137.435294 26.2254545 137.435294 11.6363636 141.351618 11.6363636 141.351618 35.3090909 140.929412 35.3090909 126.130368 20.0363636 126.130368 34.5818182"></polygon>
                        <path d="M147.830294,11.6363636 L147.830294,25.0254545 C147.830294,27.2315152 148.298603,28.8969697 149.235221,30.0218182 C150.282208,31.2015458 151.81723,31.8300313 153.391765,31.7236364 C154.958223,31.8301357 156.48299,31.1911307 157.504632,30 C158.426691,28.8509091 158.890147,27.1539394 158.895,24.9090909 L158.895,11.6363636 L162.498309,11.6363636 L162.498309,24.9963636 C162.498309,28.2206061 161.675735,30.7442424 160.030588,32.5672727 C158.303057,34.4320587 155.837214,35.4361335 153.297132,35.3090909 C150.254338,35.3090909 147.895809,34.4218182 146.243382,32.6472727 C144.590956,30.8727273 143.746544,28.3418182 143.746544,25.0545455 L143.746544,11.6363636 L147.830294,11.6363636 Z" id="Path" fill="#7F481E"></path>
                        <polygon id="Path" fill="#7F481E" points="175.317353 15.1490909 175.317353 34.5672727 171.27 34.5672727 171.27 15.1490909 163.524706 15.1490909 163.524706 11.6363636 183.018971 11.6363636 183.018971 15.1272727"></polygon>
                        <path d="M183.069926,29.4763636 C184.144268,30.1872269 185.291142,30.7820784 186.49125,31.2509091 C187.421273,31.6082922 188.406732,31.8002801 189.403015,31.8181818 C190.447962,31.8655547 191.477015,31.5494115 192.314779,30.9236364 C193.041233,30.3788445 193.461098,29.5182349 193.443088,28.6109091 C193.456122,27.8398188 193.198583,27.0884951 192.715147,26.4872727 C191.969172,25.6598963 191.084904,24.9683884 190.101838,24.4436364 L188.376618,23.3963636 C186.953028,22.6369723 185.691852,21.6067225 184.664118,20.3636364 C183.932164,19.375645 183.545908,18.1744941 183.564926,16.9454545 C183.515323,15.2744897 184.224335,13.6706537 185.493971,12.5818182 C186.901854,11.4190319 188.691926,10.820297 190.516765,10.9018182 C191.49743,10.9009695 192.474771,11.0157017 193.428529,11.2436364 C194.415932,11.4849533 195.373101,11.8362436 196.282059,12.2909091 L196.158309,15.9272727 C195.19886,15.3791155 194.192817,14.916712 193.151912,14.5454545 C192.403868,14.2762096 191.617361,14.1288749 190.8225,14.1090909 C189.93466,14.0671136 189.058289,14.3231273 188.332941,14.8363636 C187.739644,15.2811184 187.400173,15.9865697 187.423015,16.7272727 C187.422931,17.363882 187.658928,17.9779479 188.085441,18.4509091 C188.813663,19.1773537 189.645192,19.7924636 190.553162,20.2763636 L192.212868,21.2436364 C193.788115,22.0909453 195.178808,23.2430232 196.303897,24.6327273 C197.119747,25.7535337 197.548947,27.1088656 197.526838,28.4945455 C197.587338,30.388623 196.784043,32.2077531 195.343015,33.44 C193.725404,34.7512453 191.680074,35.4194463 189.599559,35.3163636 C188.522543,35.3211391 187.448323,35.2064982 186.396618,34.9745455 C185.365067,34.753891 184.363256,34.4121234 183.412059,33.9563636 L183.069926,29.4763636 Z" id="Path" fill="#7F481E"></path>
                        <path d="M17.2522059,6.26181818 C17.2522059,6.26181818 12.375,13.3672727 12.0183088,17.5636364 C11.5597059,23.4763636 14.5588235,26.9090909 20.7972794,26.4218182 C27.0357353,25.9345455 27.8000735,21.2509091 25.9438235,18.56 C25.5349044,18.0004629 25.0924786,17.4661536 24.6189706,16.96 C24.6189706,16.96 25.1722059,17.3454545 23.4906618,20.0363636 C21.8091176,22.7272727 17.5433824,22.5309091 16.9391912,17.7163636 C16.3277206,12.7927273 17.2522059,6.26181818 17.2522059,6.26181818 Z" id="Path" fill="#009050"></path>
                        <path d="M22.7117647,0.0363636364 C22.7117647,0.0363636364 20.9355882,3.19272727 20.79,4.49454545 C20.2513235,9.41090909 27.9165441,13.3309091 29.1758824,16.64 C30.1804412,19.2509091 30.1076471,21.0036364 27.8728676,21.8909091 C28.1422059,25.44 23.8327941,26.6036364 23.8327941,26.6036364 C23.8327941,26.6036364 35.3269853,26.9090909 34.6718382,18.2472727 C34.4534559,15.3381818 30.5880882,12.2981818 26.7154412,9.52 C24.7063235,8.06545455 22.6098529,6.66909091 22.6098529,4.21090909 C22.6098529,1.99272727 22.7117647,0.0363636364 22.7117647,0.0363636364 Z" id="Path" fill="#009050"></path>
                        <path d="M21.3286765,27.7818182 C23.3047963,30.0176855 24.7504762,32.6702224 25.5580147,35.5418182 C25.9947806,37.6682593 26.2384173,39.8297673 26.2859559,42 C26.2859559,42 29.5908088,38.24 42.3006618,34.8509091 C45.2124265,34.0727273 41.6746324,36.0945455 41.6746324,36.0945455 C41.6746324,36.0945455 29.3505882,43.0836364 27.1740441,46.7709091 C26.0602941,48.6618182 24.75,50.9090909 23.7163235,51.6872727 C22.9783669,51.8587078 22.2042016,51.6357547 21.6708088,51.0981818 C20.3432821,48.6417553 18.4616441,46.5277901 16.1748529,44.9236364 C12.6370588,42.6181818 0.553235294,34.6981818 0.553235294,34.6981818 C0.553235294,34.6981818 4.29485294,34.6981818 5.48139706,34.7781818 C16.1020588,35.7018182 19.7126471,42.1818182 19.7126471,42.1818182 C20.63222,39.8158581 21.1536723,37.3142026 21.2558824,34.7781818 C21.3286765,32.8581818 21.3286765,27.7818182 21.3286765,27.7818182 Z" id="Path" fill="#009050"></path>
                        <path d="M33.6308824,44.9018182 C33.6308824,44.9018182 38.9448529,48.1818182 36.2223529,50.9236364 C33.0630882,54.1018182 21.7945588,55.7236364 13.48875,53.4909091 C3.29757353,50.7563636 1.77617647,48.2909091 1.77617647,48.2909091 C1.77617647,48.2909091 5.41588235,57.0181818 21.3432353,57.9345455 C33.6381618,58.6618182 39.47625,54.8218182 41.2815441,52.1745455 C44.5427206,47.3818182 36.3970588,45.4836364 33.6308824,44.9018182 Z" id="Path" fill="#80461E"></path>
                        <path d="M35.8438235,44.2109091 C35.8438235,44.2109091 48.0441176,47.2727273 42.7665441,53.5781818 C37.3579412,60.1236364 21.65625,61.0763636 12.1930147,58.4 C1.50683824,55.36 0.356691176,49.1127273 0.356691176,49.1127273 C0.356691176,49.1127273 1.81257353,62.16 21.8891912,63.5781818 C36.1058824,64.5818182 44.6227941,60.8436364 47.9858824,55.6581818 C54.5155147,45.5927273 35.8438235,44.2109091 35.8438235,44.2109091 Z" id="Path" fill="#0276AD"></path>
                        <path d="M82.3738235,47.1490909 C82.3761773,47.4744761 82.3615988,47.7997635 82.3301471,48.1236364 C82.286618,48.5414275 82.1334402,48.9403277 81.8861029,49.28 C81.7936619,49.4021956 81.6939992,49.5187668 81.5876471,49.6290909 C81.3200611,49.9341398 80.9931318,50.1815861 80.6267647,50.3563636 C80.2574966,50.5284585 79.8651651,50.6460499 79.4620588,50.7054545 L79.2145588,50.7054545 L78.9525,50.7054545 C78.2123126,50.7049312 77.4921701,50.4651042 76.8997059,50.0218182 C76.3031805,49.5973682 75.8794295,48.9726514 75.7058824,48.2618182 L76.5866912,48.2618182 C76.8204826,48.7264538 77.1655616,49.1261781 77.59125,49.4254545 C78.0212691,49.7129596 78.5298732,49.8603193 79.0471324,49.8472727 L79.2363971,49.8472727 C79.6388045,49.8216749 80.031023,49.7100697 80.3865441,49.52 C80.729155,49.3372796 81.0140057,49.0627644 81.2091176,48.7272727 C81.2648239,48.634057 81.3134885,48.5368172 81.3547059,48.4363636 C81.3880992,48.3438361 81.414858,48.2490511 81.4347794,48.1527273 C81.4723094,48.0051206 81.4942673,47.8539937 81.5002941,47.7018182 C81.5002941,47.5490909 81.5002941,47.3745455 81.5002941,47.2 L81.5002941,46.8218182 L81.5002941,46.8218182 C81.334817,47.2536267 81.0231685,47.6138806 80.6194853,47.84 C80.2173384,48.0679581 79.7748893,48.2161288 79.3164706,48.2763636 L79.1126471,48.2763636 L78.7850735,48.2763636 C78.3608703,48.2593948 77.9436018,48.1631905 77.5548529,47.9927273 C77.1642895,47.8309519 76.8065827,47.5992721 76.4993382,47.3090909 C76.1564127,46.9864995 75.8859626,46.5948309 75.7058824,46.16 C75.3046246,45.1564926 75.3604273,44.0281893 75.85875,43.0690909 C75.85875,42.9963636 75.9388235,42.9236364 75.9752206,42.8654545 C76.0019794,42.8144962 76.0363432,42.7679024 76.0771324,42.7272727 C76.4314529,42.2438112 76.8987905,41.8543047 77.4383824,41.5927273 C77.8814296,41.3891218 78.3629244,41.2824967 78.8505882,41.28 L78.9743382,41.28 C79.4819792,41.3007517 79.9789132,41.4323183 80.4302206,41.6654545 C80.8842415,41.8983664 81.2516141,42.2704995 81.4784559,42.7272727 L81.4784559,42.7272727 L81.4784559,41.4545455 L82.3447059,41.4545455 L82.3738235,47.1490909 Z M77.0525735,42.9090909 C76.5820909,43.3854362 76.3202479,44.0289784 76.3246324,44.6981818 C76.3152425,45.4028277 76.575639,46.08444 77.0525735,46.6036364 C77.523405,47.133607 78.2073923,47.4245686 78.9161029,47.3963636 C79.2571592,47.4006306 79.5958167,47.3388885 79.9133824,47.2145455 C80.2297986,47.0840436 80.5150657,46.8882575 80.7505147,46.64 C80.9311125,46.444185 81.0830606,46.2238177 81.2018382,45.9854545 C81.320165,45.7560307 81.405916,45.5112527 81.4566176,45.2581818 C81.4747572,45.1816635 81.4869261,45.1038541 81.4930147,45.0254545 C81.4930147,44.9454545 81.4930147,44.8727273 81.4930147,44.8 C81.5129629,44.0879658 81.2299256,43.4008433 80.7141176,42.9090909 C80.2042447,42.4216225 79.5195529,42.1595294 78.8141912,42.1818182 C78.1510584,42.1676269 77.5122447,42.4313571 77.0525735,42.9090909 L77.0525735,42.9090909 Z" id="Shape" fill="#009050"></path>
                        <path d="M84.0335294,41.4545455 L84.8925,41.4545455 L84.8925,42.4218182 L84.8925,42.4218182 C85.0353631,42.0536719 85.3141513,41.7543149 85.6713971,41.5854545 C86.0301107,41.4191519 86.4189716,41.3275936 86.8142647,41.3163636 L86.8142647,42.1818182 C86.6370167,42.2010573 86.4616963,42.2351161 86.2901471,42.2836364 C86.1275859,42.330338 85.9711854,42.3962588 85.8242647,42.48 L85.7223529,42.56 L85.6058824,42.6545455 L85.4384559,42.8 C85.3885294,42.849911 85.3423044,42.9033855 85.3001471,42.96 C85.1401167,43.1394868 85.0297175,43.3575756 84.9798529,43.5927273 C84.9390753,43.8574108 84.9196012,44.1249343 84.9216176,44.3927273 L84.9216176,48.1163636 L84.0116912,48.1163636 L84.0335294,41.4545455 Z" id="Path" fill="#009050"></path>
                        <path d="M91.0436029,41.2727273 C91.9638599,41.275335 92.8437418,41.6505816 93.4822059,42.3127273 C94.1495075,42.9383988 94.5265568,43.8129821 94.5231618,44.7272727 C94.5309237,45.6557717 94.1665745,46.548786 93.5113235,47.2072727 C92.8778135,47.8955674 91.9793605,48.2795085 91.0436029,48.2618182 C90.1240129,48.2743968 89.2377603,47.9181256 88.5831618,47.2727273 C87.9018832,46.6441347 87.5206853,45.7554897 87.5349265,44.8290909 C87.5235233,43.8941985 87.8911055,42.9944491 88.5540441,42.3345455 C89.2032316,41.6573682 90.1051672,41.2805894 91.0436029,41.2945455 L91.0436029,41.2727273 Z M89.1873529,42.9090909 C88.7069447,43.4144265 88.4453774,44.0886505 88.4594118,44.7854545 C88.4372255,45.4707754 88.7008628,46.1345313 89.1873529,46.6181818 C89.6756293,47.1023991 90.3413543,47.3652899 91.0290441,47.3454545 C91.732348,47.3672288 92.409258,47.0770105 92.8780147,46.5527273 C93.3529348,46.0410175 93.6134543,45.3668916 93.6059559,44.6690909 C93.6127819,44.3227312 93.5483639,43.978659 93.4166912,43.6581818 C93.2833026,43.3377994 93.0821643,43.050014 92.8270588,42.8145455 C92.5877327,42.5868875 92.3090212,42.404536 92.0044853,42.2763636 C91.6984928,42.1457978 91.3690534,42.0789806 91.0363235,42.08 C90.3302027,42.081883 89.6580993,42.3832587 89.1873529,42.9090909 Z" id="Shape" fill="#009050"></path>
                        <polygon id="Path" fill="#009050" points="95.2438235 41.4545455 96.1974265 41.4545455 98.3011765 47.0545455 99.8516912 42.2763636 100.579632 42.2763636 102.122868 47.0545455 104.263015 41.4545455 105.216618 41.4545455 102.668824 48.1381818 101.627868 48.1381818 100.171985 43.7018182 98.7597794 48.1381818 97.7261029 48.1381818"></polygon>
                        <path d="M109.722574,41.4545455 L110.581544,41.4545455 L110.581544,42.32 L110.581544,42.32 C110.734206,42.0018231 110.991016,41.7452493 111.309485,41.5927273 C111.632287,41.4299603 111.988857,41.3452593 112.350441,41.3454545 C112.770705,41.343193 113.186124,41.4351474 113.566103,41.6145455 C113.93315,41.7847602 114.258591,42.0329599 114.519706,42.3418182 L114.563382,42.4072727 C114.559823,42.4265037 114.559823,42.4462236 114.563382,42.4654545 C114.582737,42.483668 114.597675,42.5060547 114.607059,42.5309091 L114.650735,42.5963636 L114.650735,42.5527273 C114.649614,42.5382034 114.649614,42.5236148 114.650735,42.5090909 C114.67174,42.4879232 114.688973,42.4633273 114.701691,42.4363636 C114.715831,42.4033987 114.732884,42.3717584 114.752647,42.3418182 C114.944231,42.0728691 115.192768,41.849391 115.480588,41.6872727 C115.773842,41.5238077 116.094569,41.4153538 116.426912,41.3672727 C116.499539,41.3603083 116.572667,41.3603083 116.645294,41.3672727 L116.841838,41.3672727 C117.214182,41.3691987 117.580813,41.4589035 117.911912,41.6290909 C118.28854,41.8115817 118.630838,42.0576131 118.92375,42.3563636 C119.180723,42.6028305 119.360311,42.9187161 119.440588,43.2654545 C119.515441,43.6266752 119.552039,43.9947626 119.549779,44.3636364 L119.549779,48.16 L118.639853,48.16 L118.639853,44.2327273 C118.643486,44.1624711 118.643486,44.0920744 118.639853,44.0218182 C118.618935,43.8407203 118.587336,43.6610138 118.545221,43.4836364 C118.50318,43.3100658 118.426419,43.1467894 118.319559,43.0036364 C118.006992,42.5203139 117.482353,42.215006 116.907353,42.1818182 C116.615914,42.1809106 116.328622,42.2507958 116.070221,42.3854545 C115.811065,42.5121636 115.588198,42.7023023 115.422353,42.9381818 C115.328913,43.0747294 115.262222,43.227732 115.225809,43.3890909 C115.187797,43.5491665 115.163445,43.7121751 115.153015,43.8763636 C115.153015,43.9636364 115.153015,44.0436364 115.153015,44.1236364 L115.153015,48.1309091 L114.243088,48.1309091 L114.243088,44.2763636 C114.243088,44.1163636 114.243088,43.9563636 114.243088,43.8109091 C114.226591,43.6548193 114.192401,43.5011068 114.141176,43.3527273 C114.141176,43.2872727 114.0975,43.2218182 114.068382,43.1563636 C114.039265,43.0909091 113.988309,43.0254545 113.944632,42.96 C113.773897,42.7164458 113.549839,42.5149789 113.289485,42.3709091 C113.028493,42.2277257 112.735546,42.1526802 112.437794,42.1527273 C112.156871,42.1539482 111.879257,42.2133824 111.6225,42.3272727 C111.361996,42.4449169 111.136325,42.6277935 110.967353,42.8581818 C110.8205,43.0592802 110.727762,43.2946676 110.698015,43.5418182 C110.669191,43.7831767 110.654607,44.0260206 110.654338,44.2690909 L110.654338,48.08 L109.744412,48.08 L109.722574,41.4545455 Z" id="Path" fill="#009050"></path>
                        <path d="M124.572574,41.2727273 C125.492488,41.2769933 126.371751,41.6519759 127.011176,42.3127273 C127.678478,42.9383988 128.055527,43.8129821 128.052132,44.7272727 C128.059894,45.6557717 127.695545,46.548786 127.040294,47.2072727 C126.406231,47.8947863 125.508148,48.2785696 124.572574,48.2618182 C123.652678,48.2760381 122.765814,47.919521 122.112132,47.2727273 C121.430854,46.6441347 121.049656,45.7554897 121.063897,44.8290909 C121.052494,43.8941985 121.420076,42.9944491 122.083015,42.3345455 C122.732202,41.6573682 123.634138,41.2805894 124.572574,41.2945455 L124.572574,41.2727273 Z M122.716324,42.9090909 C122.235915,43.4144265 121.974348,44.0886505 121.988382,44.7854545 C121.966196,45.4707754 122.229833,46.1345313 122.716324,46.6181818 C123.2046,47.1023991 123.870325,47.3652899 124.558015,47.3454545 C125.261319,47.3672288 125.938229,47.0770105 126.406985,46.5527273 C126.881905,46.0410175 127.142425,45.3668916 127.134926,44.6690909 C127.141753,44.3227312 127.077335,43.978659 126.945662,43.6581818 C126.812273,43.3377994 126.611135,43.050014 126.356029,42.8145455 C126.116703,42.5868875 125.837992,42.404536 125.533456,42.2763636 C124.558138,41.8691241 123.432245,42.1097513 122.709044,42.88 L122.716324,42.9090909 Z" id="Shape" fill="#009050"></path>
                        <path d="M129.457059,41.4545455 L130.301471,41.4545455 L130.301471,42.4218182 L130.301471,42.4218182 C130.441943,42.0545701 130.718142,41.7551956 131.073088,41.5854545 C131.434041,41.4181886 131.825477,41.3266074 132.223235,41.3163636 L132.223235,42.1818182 C132.043704,42.2017784 131.866023,42.2358229 131.691838,42.2836364 C131.53162,42.3304204 131.37764,42.3963516 131.233235,42.48 L131.124044,42.56 L131.007574,42.6545455 L130.847426,42.8 C130.793231,42.8478987 130.744414,42.9015479 130.701838,42.96 C130.543586,43.1397137 130.435612,43.3579728 130.388824,43.5927273 C130.341626,43.8567128 130.319689,44.1245878 130.323309,44.3927273 L130.323309,48.1163636 L129.420662,48.1163636 L129.457059,41.4545455 Z" id="Path" fill="#009050"></path>
                        <path d="M133.861103,45.0909091 C133.878258,45.7280988 134.173458,46.3259285 134.669118,46.7272727 C135.135872,47.1565243 135.745415,47.397526 136.379779,47.4036364 L136.438015,47.4036364 C136.926514,47.3960183 137.404068,47.2579058 137.821103,47.0036364 C138.244635,46.7609217 138.578925,46.388697 138.774706,45.9418182 L139.721029,45.9418182 C139.330417,47.0732114 138.384761,47.9243096 137.217831,48.194718 C136.0509,48.4651264 134.826799,48.1168177 133.977574,47.2727273 C133.304398,46.6281457 132.93216,45.7313744 132.951176,44.8 C132.935555,43.8707134 133.304251,42.9761316 133.970294,42.3272727 C135.008651,41.2777495 136.599635,41.0030893 137.930294,41.6436364 C138.393846,41.8723793 138.803302,42.1971639 139.131397,42.5963636 C139.420007,42.9428402 139.630989,43.3470582 139.750147,43.7818182 C139.853711,44.2105823 139.907448,44.6498464 139.910294,45.0909091 L133.861103,45.0909091 Z M139.036765,44.2690909 C138.921385,43.6810142 138.60484,43.1513521 138.141397,42.7709091 C137.682722,42.3685379 137.092072,42.1485417 136.481691,42.1527273 C135.868294,42.1470066 135.272645,42.358255 134.800147,42.7490909 C134.315629,43.1228051 133.990562,43.6658172 133.890221,44.2690909 L139.036765,44.2690909 Z" id="Shape" fill="#009050"></path>
                        <polygon id="Path" fill="#009050" points="142.676471 46.5454545 143.579118 46.5454545 142.501765 48.9090909 141.599118 48.9090909"></polygon>
                        <polygon id="Path" fill="#009050" points="147.619191 41.4545455 148.572794 41.4545455 150.676544 47.0545455 152.234338 42.2763636 152.962279 42.2763636 154.505515 47.0545455 156.645662 41.4545455 157.599265 41.4545455 155.051471 48.1018182 154.032353 48.1018182 152.576471 43.6654545 151.171544 48.1018182 150.130588 48.1018182"></polygon>
                        <path d="M158.589265,39.0690909 L159.589265,39.0690909 L159.589265,40.6109091 L158.589265,40.6109091 L158.589265,39.0690909 Z M158.589265,41.4181818 L159.589265,41.4181818 L159.589265,48.1018182 L158.589265,48.1018182 L158.589265,41.4181818 Z" id="Shape" fill="#009050"></path>
                        <polygon id="Path" fill="#009050" points="161.930515 42.24 160.540147 42.24 160.540147 41.4545455 161.930515 41.4545455 161.930515 39.0690909 162.833162 39.0690909 162.833162 41.4545455 164.390956 41.4545455 164.390956 42.2763636 162.833162 42.2763636 162.833162 48.1381818 161.930515 48.1381818"></polygon>
                        <path d="M165.431912,39.0690909 L166.334559,39.0690909 L166.334559,42.3854545 C166.520562,42.0479941 166.801477,41.7723939 167.142574,41.5927273 C167.483963,41.4151179 167.857937,41.3087198 168.241765,41.28 L168.365515,41.28 C168.796993,41.2823151 169.223309,41.3739385 169.617574,41.5490909 C170.013834,41.7083087 170.367683,41.9572691 170.65125,42.2763636 C170.924931,42.5783399 171.119941,42.9430232 171.219044,43.3381818 C171.308462,43.7392537 171.352415,44.1491058 171.350074,44.56 L171.350074,48.0654545 L170.447426,48.0654545 L170.447426,44.5818182 C170.44946,44.3061859 170.425084,44.0309919 170.374632,43.76 C170.327076,43.4845208 170.217561,43.2234175 170.054338,42.9963636 C169.869017,42.7274656 169.618596,42.5097989 169.326397,42.3636364 C169.022197,42.2258415 168.692239,42.153962 168.358235,42.1527273 L168.278162,42.1527273 C168.251901,42.1459531 168.224349,42.1459531 168.198088,42.1527273 C167.90691,42.1692676 167.623232,42.2513093 167.368235,42.3927273 C167.110384,42.5306552 166.884638,42.7214958 166.705809,42.9527273 C166.576,43.1327567 166.486612,43.3386567 166.44375,43.5563636 C166.399171,43.7719878 166.37239,43.9909053 166.363676,44.2109091 L166.363676,48.0872727 L165.461029,48.0872727 L165.431912,39.0690909 Z" id="Path" fill="#009050"></path>
                        <polygon id="Path" fill="#009050" points="176.525735 39.0690909 177.428382 39.0690909 177.428382 48.1018182 176.525735 48.1018182"></polygon>
                        <path d="M179.743235,45.0909091 C179.754982,45.7245519 180.041915,46.3217805 180.529412,46.7272727 C180.992797,47.15725 181.600402,47.398512 182.232794,47.4036364 L182.291029,47.4036364 C182.779529,47.3960183 183.257083,47.2579058 183.674118,47.0036364 C184.09765,46.7609217 184.431939,46.388697 184.627721,45.9418182 L185.574044,45.9418182 C185.179208,47.0617639 184.239538,47.9029084 183.082094,48.1724851 C181.924651,48.4420618 180.709546,48.1027792 179.859706,47.2727273 C179.18653,46.6281457 178.814292,45.7313744 178.833309,44.8 C178.817687,43.8707134 179.186383,42.9761316 179.852426,42.3272727 C180.890783,41.2777495 182.481767,41.0030893 183.812426,41.6436364 C184.275978,41.8723793 184.685434,42.1971639 185.013529,42.5963636 C185.304868,42.941018 185.516179,43.3458658 185.632279,43.7818182 C185.735945,44.2156629 185.792084,44.6594836 185.799706,45.1054545 L179.743235,45.0909091 Z M184.897059,44.2690909 C184.784602,43.6798998 184.467502,43.1493106 184.001691,42.7709091 C183.543016,42.3685379 182.952367,42.1485417 182.341985,42.1527273 C181.728589,42.1470066 181.13294,42.358255 180.660441,42.7490909 C180.175923,43.1228051 179.850857,43.6658172 179.750515,44.2690909 L184.897059,44.2690909 Z" id="Shape" fill="#009050"></path>
                        <path d="M186.615,46.1381818 L187.517647,46.1381818 L187.517647,46.1963636 C187.516672,46.5164819 187.645323,46.8233868 187.874338,47.0472727 C188.098705,47.2800804 188.409876,47.4091766 188.733309,47.4036364 C189.038866,47.4117121 189.335884,47.3023849 189.563162,47.0981818 C189.788258,46.8908806 189.912947,46.5966714 189.905294,46.2909091 C189.935626,45.9477112 189.783682,45.6137416 189.504926,45.4109091 C189.230919,45.2285631 188.928276,45.0933591 188.609559,45.0109091 L188.507647,45.0109091 L188.391176,44.9672727 C188.210091,44.9101754 188.032634,44.8421721 187.859779,44.7636364 C187.689852,44.686867 187.534653,44.5810342 187.401176,44.4509091 C187.221944,44.2941022 187.082277,44.0972529 186.993529,43.8763636 C186.907327,43.6561768 186.862895,43.4218847 186.8625,43.1854545 C186.845739,42.6740973 187.056272,42.18153 187.437574,41.84 C187.802691,41.4939639 188.288313,41.3035454 188.791544,41.3090909 C189.281271,41.3029131 189.75216,41.4974034 190.094559,41.8472727 C190.445127,42.1776577 190.642822,42.6385219 190.640515,43.12 L189.737868,43.12 C189.74945,42.8567245 189.636155,42.6033935 189.432132,42.4363636 C189.227192,42.2690765 188.968721,42.1812772 188.704191,42.1890909 C188.189592,42.1890909 187.772426,42.6058731 187.772426,43.12 C187.756802,43.4096061 187.895125,43.6859969 188.136397,43.8472727 C188.392464,43.990287 188.663412,44.1049071 188.944412,44.1890909 C189.417015,44.3290222 189.862499,44.5478713 190.261985,44.8363636 C190.653894,45.1528522 190.861509,45.6441195 190.815221,46.1454545 C190.839129,46.7184399 190.616588,47.2742802 190.20375,47.6727273 C189.787198,48.0693622 189.228325,48.2816963 188.653235,48.2618182 C188.105993,48.2742518 187.578352,48.0581177 187.197353,47.6654545 C186.799374,47.2876206 186.5799,46.7592512 186.593162,46.2109091 L186.593162,46.1090909 L186.615,46.1381818 Z" id="Path" fill="#009050"></path>
                        <path d="M191.484926,46.1381818 L192.387574,46.1381818 L192.387574,46.1963636 C192.389433,46.5223222 192.52236,46.8338528 192.75646,47.0608993 C192.99056,47.2879458 193.306183,47.4114492 193.632353,47.4036364 C193.93992,47.4106417 194.23883,47.3015746 194.469485,47.0981818 C194.694581,46.8908806 194.819271,46.5966714 194.811618,46.2909091 C194.84195,45.9477112 194.690006,45.6137416 194.41125,45.4109091 C194.137243,45.2285631 193.8346,45.0933591 193.515882,45.0109091 L193.406691,45.0109091 L193.290221,44.9672727 C193.111955,44.9089201 192.936992,44.8409413 192.766103,44.7636364 C192.593955,44.6869524 192.436347,44.581157 192.300221,44.4509091 C192.125395,44.291755 191.988573,44.0954096 191.899853,43.8763636 C191.811486,43.6565563 191.764594,43.4223097 191.761544,43.1854545 C191.748743,42.6748473 191.958597,42.1838691 192.336618,41.84 C192.705208,41.4948186 193.192685,41.3046948 193.697868,41.3090909 C194.187268,41.3046049 194.657519,41.4988318 195.000882,41.8472727 C195.35145,42.1776577 195.549145,42.6385219 195.546838,43.12 L194.636912,43.12 C194.651426,42.8577546 194.540709,42.6041486 194.338456,42.4363636 C194.133515,42.2690765 193.875044,42.1812772 193.610515,42.1890909 C193.364229,42.184128 193.126945,42.2815887 192.955368,42.4581818 C192.771703,42.6284404 192.67082,42.8698082 192.67875,43.12 C192.663126,43.4096061 192.801448,43.6859969 193.042721,43.8472727 C193.298788,43.990287 193.569735,44.1049071 193.850735,44.1890909 C194.323338,44.3290222 194.768822,44.5478713 195.168309,44.8363636 C195.560218,45.1528522 195.767832,45.6441195 195.721544,46.1454545 C195.745452,46.7184399 195.522912,47.2742802 195.110074,47.6727273 C194.693522,48.0693622 194.134649,48.2816963 193.559559,48.2618182 C192.448402,48.250181 191.548244,47.3572971 191.528603,46.2472727 L191.528603,46.1454545 L191.484926,46.1381818 Z" id="Path" fill="#009050"></path>
                    </g>
                </g>
            </g>
        </g>
    </g>
</svg>